<svg width="50" height="50" viewBox="0 0 50 50" fill="none" xmlns="http://www.w3.org/2000/svg">
<path d="M20.8331 10.4167C20.3463 10.4158 19.8746 10.5853 19.4998 10.8959C19.2888 11.0708 19.1144 11.2856 18.9866 11.528C18.8588 11.7703 18.7801 12.0356 18.7549 12.3084C18.7297 12.5813 18.7587 12.8565 18.84 13.1181C18.9213 13.3798 19.0535 13.6229 19.2289 13.8334L28.5623 25L19.5623 36.1875C19.3892 36.4006 19.26 36.6458 19.182 36.909C19.104 37.1723 19.0788 37.4483 19.1079 37.7213C19.1369 37.9942 19.2196 38.2588 19.3512 38.4997C19.4828 38.7406 19.6607 38.9531 19.8748 39.125C20.0903 39.3147 20.3427 39.4578 20.6162 39.5452C20.8897 39.6327 21.1783 39.6627 21.4639 39.6334C21.7495 39.604 22.0259 39.516 22.2759 39.3747C22.5259 39.2335 22.7439 39.0421 22.9164 38.8125L32.9789 26.3125C33.2853 25.9398 33.4529 25.4722 33.4529 24.9896C33.4529 24.5071 33.2853 24.0395 32.9789 23.6667L22.5623 11.1667C22.3533 10.9146 22.0878 10.7153 21.7873 10.585C21.4869 10.4547 21.16 10.397 20.8331 10.4167Z" fill="white"/>
</svg>
