<svg width="50" height="50" viewBox="0 0 50 50" fill="none" xmlns="http://www.w3.org/2000/svg">
<path d="M29.1669 39.5833C29.6537 39.5842 30.1254 39.4147 30.5002 39.1041C30.7112 38.9292 30.8856 38.7144 31.0134 38.472C31.1412 38.2297 31.2199 37.9644 31.2451 37.6916C31.2703 37.4187 31.2413 37.1435 31.16 36.8819C31.0787 36.6202 30.9465 36.3771 30.7711 36.1666L21.4377 25L30.4377 13.8125C30.6108 13.5994 30.74 13.3542 30.818 13.091C30.896 12.8277 30.9212 12.5517 30.8921 12.2787C30.8631 12.0058 30.7804 11.7412 30.6488 11.5003C30.5172 11.2594 30.3393 11.0469 30.1252 10.875C29.9097 10.6853 29.6573 10.5422 29.3838 10.4548C29.1103 10.3673 28.8217 10.3373 28.5361 10.3666C28.2505 10.396 27.9741 10.484 27.7241 10.6253C27.4741 10.7665 27.2561 10.9579 27.0836 11.1875L17.0211 23.6875C16.7147 24.0602 16.5471 24.5278 16.5471 25.0104C16.5471 25.4929 16.7147 25.9605 17.0211 26.3333L27.4377 38.8333C27.6467 39.0854 27.9122 39.2847 28.2127 39.415C28.5131 39.5453 28.84 39.603 29.1669 39.5833Z" fill="white"/>
</svg>
