<svg width="20" height="20" viewBox="0 0 20 20" fill="none" xmlns="http://www.w3.org/2000/svg">
<g clip-path="url(#clip0_2201_96)">
<path d="M14.5832 5.41669H14.5915M5.83317 1.66669H14.1665C16.4677 1.66669 18.3332 3.53217 18.3332 5.83335V14.1667C18.3332 16.4679 16.4677 18.3334 14.1665 18.3334H5.83317C3.53198 18.3334 1.6665 16.4679 1.6665 14.1667V5.83335C1.6665 3.53217 3.53198 1.66669 5.83317 1.66669ZM13.3332 9.47502C13.436 10.1686 13.3176 10.8769 12.9946 11.4992C12.6717 12.1215 12.1608 12.6262 11.5345 12.9414C10.9083 13.2566 10.1985 13.3664 9.50633 13.255C8.81411 13.1436 8.17464 12.8168 7.67887 12.321C7.1831 11.8252 6.85628 11.1857 6.74489 10.4935C6.63351 9.80131 6.74322 9.0916 7.05844 8.46533C7.37366 7.83907 7.87833 7.32814 8.50066 7.00522C9.12299 6.68231 9.8313 6.56384 10.5248 6.66669C11.2323 6.77159 11.8872 7.10124 12.3929 7.60694C12.8986 8.11265 13.2283 8.76758 13.3332 9.47502Z" stroke="white" stroke-width="2" stroke-linecap="round" stroke-linejoin="round"/>
</g>
<defs>
<clipPath id="clip0_2201_96">
<rect width="20" height="20" fill="white"/>
</clipPath>
</defs>
</svg>
