<svg width="23" height="23" viewBox="0 0 23 23" fill="none" xmlns="http://www.w3.org/2000/svg">
<path d="M21.662 16.4738V19.4846C21.6631 19.7642 21.6057 20.0408 21.4936 20.2969C21.3814 20.553 21.2168 20.7829 21.0104 20.9719C20.8041 21.1608 20.5604 21.3047 20.2951 21.3942C20.0298 21.4838 19.7487 21.517 19.4698 21.4919C16.3754 21.1563 13.403 20.101 10.7915 18.4108C8.36181 16.8699 6.30186 14.8141 4.75794 12.3892C3.05846 9.77099 2.00084 6.79008 1.67076 3.68795C1.64563 3.41042 1.67868 3.13071 1.7678 2.86663C1.85692 2.60254 2.00016 2.35987 2.18841 2.15407C2.37665 1.94826 2.60577 1.78383 2.86117 1.67123C3.11658 1.55864 3.39268 1.50036 3.67189 1.5001H6.68868C7.1767 1.4953 7.64982 1.66778 8.01984 1.98537C8.38987 2.30297 8.63156 2.74401 8.69987 3.22629C8.8272 4.18982 9.06334 5.13587 9.40378 6.04642C9.53908 6.40563 9.56836 6.79602 9.48816 7.17133C9.40796 7.54665 9.22163 7.89115 8.95126 8.16402L7.67416 9.43859C9.10568 11.9512 11.1902 14.0315 13.7077 15.4602L14.9848 14.1856C15.2582 13.9158 15.6034 13.7298 15.9795 13.6498C16.3555 13.5698 16.7467 13.599 17.1066 13.734C18.019 14.0738 18.9669 14.3095 19.9324 14.4365C20.4208 14.5053 20.867 14.7509 21.1859 15.1265C21.5048 15.5021 21.6742 15.9817 21.662 16.4738Z" stroke="#F5F5F5" stroke-width="2" stroke-linecap="round" stroke-linejoin="round"/>
</svg>
